<svg version="1" xmlns="http://www.w3.org/2000/svg" width="533.333" height="533.333" viewBox="0 0 400.000000 400.000000"><path d="M181.6 8.4c-13.1 4.8-26.9 29.5-47.5 85-7.9 21.2-18.1 50-18.5 52.3-.1.7-.5 1.6-.9 1.9-.4.4-.7 1.5-.7 2.5 0 2.7-2.4 4.6-8.2 6.4-18.2 5.9-47.6 18.8-61.1 26.8C17.1 199.7 6 218.9 14.2 236c4.5 9.3 23.1 25 47.1 39.5 5.3 3.3 9.7 6.4 9.7 6.9 0 1.1-13.6 44.2-23.5 74-3.6 11-6.5 20.8-6.5 21.9 0 8.7 12.2 17.1 26.7 18.4 7 .6 12-.7 15.1-4 2-2.2 2.5-3.6 3.8-12.6.4-2.5.8-5.5 1-6.6.3-1.1.7-3.6 1-5.5.5-3.4 1.9-12.1 2.8-17 .2-1.4.9-5.4 1.5-9 .6-3.6 1.6-8.5 2.1-11s1.2-5.8 1.5-7.4c.2-1.6.9-5.2 1.4-8 .6-2.8 1.3-6.5 1.6-8.1.9-5.5 1.7-8.5 2.2-8.5.2 0 10.2 4.9 22.2 10.9 25.2 12.7 59.6 28.5 83.1 38.1 17.9 7.3 46.1 18 52.5 19.9 2.2.7 4.9 1.6 6 2.1 2.2 1 21.6 6.9 30.5 9.3 18.2 5 35 7.6 46.5 7.2 12.6-.4 18.7-4.1 23.7-14.3 3.2-6.5 3.3-7 3.3-19.7 0-11.6-.9-22.7-1.9-24.4-.2-.3-.7-2.4-1-4.6-.4-2.2-1.4-6.7-2.2-10-.9-3.3-1.7-6.7-1.9-7.5-.2-.8-1.7-5.9-3.4-11.2-10.8-34.9-29.2-79.3-51-123.4-6-12.1-10.8-22-10.7-22.1.2-.3 15.5-2.9 21.1-3.7 2.2-.3 9-1.3 15-2.1 6.1-.9 12.4-1.8 14-2 1.7-.2 4.8-.6 7-.9 2.2-.3 6.3-.8 9-1.1 14.1-1.7 16.9-2.4 19.8-5.3 3.8-3.9 5.4-9.1 5.1-16.5-.5-11.1-5.1-20-12.2-23.6-4-2-6.4-2-17.7.4-3.8.8-8.6 1.7-10.5 2-1.9.3-8 1.5-13.5 2.6-5.5 1-10.9 2.1-12 2.3-1.8.3-20.6 4.3-24.5 5.1-4.8 1.1-21.3 4.5-21.5 4.5-.2 0-3.3-5.1-6.9-11.3-7.7-12.9-6.6-11.2-17.5-28.1-8.8-13.8-22.9-33.2-29-40C205 11.3 192.6 4.4 181.6 8.4zm13.1 21.4c4.4 3.6 7.6 6.9 15.8 16.3 4.2 4.8 15.1 19.7 22.3 30.6 6.8 10.2 23.2 37.2 23.2 38.3 0 .3-4.6 1.7-10.2 2.9-5.7 1.3-13 3-16.3 3.8-3.3.8-6.7 1.6-7.5 1.8-9.4 2-58.2 14.9-74.7 19.8-4.6 1.4-8.3 2.1-8.3 1.6 0-1 7.1-24 12.3-39.9 12.8-38.9 27.6-71.1 35.7-77.7 2.1-1.8 2.3-1.7 7.7 2.5zm90.8 140c25.3 50.9 43.6 95.9 55 135.2 9.1 31.5 11 57.4 4.4 59.5-1.9.6-10.5.1-18.9-1.2-9.6-1.4-50.8-13.4-59.5-17.3-1.1-.4-9.6-3.9-19-7.5-41.1-16.2-105.2-47-135.1-64.9l-5.1-3.1 2.9-13c1.5-7.2 3-13.9 3.3-15 .2-1.1 1.3-5.7 2.4-10.2 1.1-4.5 2.2-9.2 2.5-10.5 1.3-7.3 9-35.5 10-36.5 1.5-1.7 53.7-14.9 78.1-19.7 19.3-3.9 33.7-6.7 41-8 5-.9 13.3-2.5 18.5-3.5 5.2-.9 10-1.4 10.6-.9.6.4 4.6 7.9 8.9 16.6zM99 195.4c0 .8-.5 2.7-1.1 4.3-.6 1.5-4.6 14-9 27.8-4.4 13.7-8.3 25.3-8.7 25.7-1 1-22.1-14-30.7-21.6-7.2-6.4-7.9-8.7-3.8-12 2.6-2 18-11.6 18.8-11.6.2 0 3.6-1.6 7.7-3.5 7.2-3.3 24.6-10.3 26.1-10.4.4-.1.7.5.7 1.3z"/></svg>