<?xml version="1.0" standalone="no"?>
<!DOCTYPE svg PUBLIC "-//W3C//DTD SVG 20010904//EN"
 "http://www.w3.org/TR/2001/REC-SVG-20010904/DTD/svg10.dtd">
<svg version="1.0" xmlns="http://www.w3.org/2000/svg"
 width="401.000000pt" height="401.000000pt" viewBox="0 0 401.000000 401.000000"
 preserveAspectRatio="xMidYMid meet">
<metadata>
Created by potrace 1.11, written by Peter Selinger 2001-2013
</metadata>
<g transform="translate(0.000000,401.000000) scale(0.100000,-0.100000)"
fill="#000000" stroke="none">
<path d="M1852 3443 c-66 -32 -140 -146 -230 -353 -73 -168 -191 -487 -248
-670 -12 -41 -44 -70 -76 -70 -18 0 -267 -103 -351 -146 -175 -87 -270 -167
-315 -263 -69 -149 9 -261 313 -451 55 -35 102 -64 103 -66 2 -1 -10 -44 -27
-96 -16 -51 -51 -158 -77 -238 -25 -80 -64 -198 -85 -262 -43 -131 -42 -146
10 -196 55 -52 183 -78 241 -49 29 15 46 46 54 102 6 48 44 279 51 315 5 25
43 224 52 270 2 13 5 25 6 26 1 1 103 -49 227 -110 238 -117 255 -125 445
-207 353 -151 696 -269 900 -310 140 -28 255 -29 309 -4 173 82 144 406 -91
1000 -74 188 -154 368 -253 569 -46 92 -81 169 -78 171 2 2 17 6 33 9 41 7
311 46 360 52 22 3 51 7 65 10 14 2 53 7 87 10 89 9 123 47 125 138 1 88 -35
161 -93 192 -27 13 -40 13 -147 -6 -106 -20 -336 -66 -517 -104 -38 -9 -73
-12 -77 -8 -3 4 -43 67 -87 141 -200 331 -369 538 -485 596 -58 29 -98 31
-144 8z m120 -159 c52 -44 125 -127 169 -192 18 -26 36 -49 39 -52 25 -19 241
-371 234 -381 -2 -4 -21 -10 -41 -14 -65 -11 -582 -142 -704 -178 -112 -33
-116 -33 -112 -13 15 67 123 392 170 511 74 190 164 355 193 355 4 0 28 -16
52 -36z m691 -1081 c47 -98 102 -216 122 -263 21 -47 45 -103 55 -125 52 -115
183 -470 196 -530 1 -5 14 -53 28 -105 31 -117 48 -249 40 -313 -8 -56 -23
-63 -116 -53 -284 29 -937 291 -1518 609 -80 43 -147 81 -149 83 -8 7 130 589
147 621 8 14 47 29 149 56 113 29 343 83 438 103 11 2 43 8 70 14 87 18 99 20
135 26 19 3 54 10 78 15 23 5 59 12 80 15 20 3 55 10 77 14 84 16 74 26 168
-167z m-1435 -225 c-16 -51 -47 -149 -69 -217 -22 -69 -41 -126 -43 -128 -4
-4 -147 96 -210 147 -60 49 -74 73 -56 95 20 24 147 96 232 132 46 19 97 40
113 48 63 29 66 24 33 -77z"/>
</g>
</svg>
